<?xml version="1.0" standalone="no"?><!DOCTYPE svg PUBLIC "-//W3C//DTD SVG 1.1//EN" "http://www.w3.org/Graphics/SVG/1.1/DTD/svg11.dtd"><svg t="1597839448528" class="icon" viewBox="0 0 1024 1024" version="1.1" xmlns="http://www.w3.org/2000/svg" p-id="2230" xmlns:xlink="http://www.w3.org/1999/xlink" width="200" height="200"><defs><style type="text/css"></style></defs><path d="M512 626.00533333c-75.32088889 0-146.09066667-29.35466667-199.33866667-82.60266666-53.248-53.248-82.60266667-124.01777778-82.60266666-199.33866667S259.41333333 197.97333333 312.66133333 144.72533333c53.248-53.248 124.01777778-82.60266667 199.33866667-82.60266666 75.32088889 0 146.09066667 29.35466667 199.33866667 82.60266666s82.60266667 124.01777778 82.60266666 199.33866667-29.35466667 146.09066667-82.60266666 199.33866667-124.01777778 82.60266667-199.33866667 82.60266666z m0-529.63555555c-136.64711111 0-247.808 111.16088889-247.808 247.808S375.35288889 591.872 512 591.872c136.64711111 0 247.808-111.16088889 247.808-247.808S648.64711111 96.36977778 512 96.36977778zM887.58044445 961.76355555c-9.44355555 0-17.06666667-7.62311111-17.06666667-17.06666666v-33.45066667c0-134.144-109.11288889-243.14311111-243.14311111-243.14311111H396.62933333c-134.144 0-243.14311111 109.11288889-243.14311111 243.14311111v33.45066667c0 9.44355555-7.62311111 17.06666667-17.06666667 17.06666666s-17.06666667-7.62311111-17.06666666-17.06666666v-33.45066667c0-73.728 28.89955555-143.36 81.46488889-195.81155555s122.08355555-81.46488889 195.81155555-81.46488889h230.62755556c73.728 0 143.36 28.89955555 195.81155556 81.46488889S904.53333333 837.51822222 904.53333333 911.24622222v33.45066667c0.11377778 9.44355555-7.50933333 17.06666667-16.95288888 17.06666666z"  p-id="2231"></path></svg>